<svg width="22" height="22" viewBox="0 0 22 22" fill="none" xmlns="http://www.w3.org/2000/svg">
<path d="M16 0.94368H6C3.23858 0.94368 1 3.18226 1 5.94368V15.9437C1 18.7051 3.23858 20.9437 6 20.9437H16C18.7614 20.9437 21 18.7051 21 15.9437V5.94368C21 3.18226 18.7614 0.94368 16 0.94368Z" stroke="white" stroke-width="1.5" stroke-linecap="round" stroke-linejoin="round"/>
<path d="M15 10.3137C15.1234 11.1459 14.9813 11.9959 14.5938 12.7427C14.2063 13.4895 13.5932 14.0951 12.8416 14.4734C12.0901 14.8516 11.2385 14.9833 10.4078 14.8496C9.57714 14.7159 8.80977 14.3238 8.21485 13.7288C7.61993 13.1339 7.22774 12.3666 7.09408 11.5359C6.96042 10.7052 7.09208 9.85357 7.47034 9.10205C7.8486 8.35053 8.4542 7.73742 9.201 7.34992C9.9478 6.96242 10.7978 6.82027 11.63 6.94368C12.4789 7.06956 13.2649 7.46514 13.8717 8.07199C14.4785 8.67883 14.8741 9.46476 15 10.3137Z" stroke="white" stroke-width="1.5" stroke-linecap="round" stroke-linejoin="round"/>
<path d="M16.5 5.44368H16.51" stroke="white" stroke-width="1.5" stroke-linecap="round" stroke-linejoin="round"/>
</svg>
